<?xml version="1.0" encoding="UTF-8"?>
<svg xmlns="http://www.w3.org/2000/svg" viewBox="2152.9 2121.3 7386.69 4123.56" role="img" aria-label="KOI">
 <defs>
  <style type="text/css">
   <![CDATA[
    .fil2 {fill:#000103}
    .fil1 {fill:#004AAD}
    .fil0 {fill:black}
   ]]>
  </style>
 </defs>
 <g id="Layer_x0020_1">
  <g id="_1746162668848">
   <path class="fil0" d="M5746.94 3406.53c0,-397.22 247.76,-426.01 578.1,-426.01 675.79,0 1247.53,-116.15 1247.53,395.57l0 1460.54c0,296.17 -160.32,395.57 -456.42,395.57 -895.94,0 -1369.22,137.61 -1369.22,-456.42l0 -1369.26zm-669.43 1004.12c0,888.57 166.61,1460.54 1064.96,1460.54 1206.85,0 2099.52,223.68 2099.52,-1277.97 0,-2321.91 -55.67,-2251.69 -2129.96,-2251.69 -1169.72,0 -1034.52,1146.26 -1034.52,2069.12z"/>
   <path class="fil1" d="M4042.95 4167.19c0,-69.92 442.19,-750.78 511.34,-857.91l259.09 -410.35c63.28,-107.23 257.11,-406.7 298.27,-532.5l-1059.37 0c-153.53,259.1 -766.69,1297.36 -830.88,1344.36 0,-223.15 0,-446.26 0,-669.39 0,-281.94 21.64,-616.4 -7.71,-694.71l-910.79 0c14.73,488.81 140.92,871.29 444.04,1260.46 372.08,477.64 869.51,499.05 991.75,590.51 -194.07,4.3 -446.99,124.98 -588.2,202.93 -482.78,266.37 -841.92,919.45 -841.92,1531.45l912.83 0 0 -1247.53c93.05,62.28 769.31,1091.22 852,1247.53l1125.85 0c-98.59,-147.2 -182,-288.08 -286.08,-444.23 -105.65,-158.46 -196.64,-279.73 -298.47,-431.8 -102.89,-153.72 -189.46,-284.87 -291.81,-438.43 -46.69,-70.05 -279.93,-393.23 -279.93,-450.39z"/>
   <rect class="fil2" x="8719.63" y="2378.15" width="669.96" height="3502.64"/>
  </g>
 </g>
</svg>
